<svg width="30" height="30" viewBox="0 0 30 30" fill="none" xmlns="http://www.w3.org/2000/svg">
<path d="M16.25 5.01126C16.25 4.67974 16.1183 4.3618 15.8838 4.12738C15.6494 3.89296 15.3315 3.76126 15 3.76126C14.6684 3.76126 14.3505 3.89296 14.1161 4.12738C13.8817 4.3618 13.75 4.67974 13.75 5.01126L13.7462 15.015C13.7462 15.3465 13.8779 15.6645 14.1123 15.8989C14.3468 16.1333 14.6647 16.265 14.9962 16.265C15.3277 16.265 15.6457 16.1333 15.8801 15.8989C16.1145 15.6645 16.2462 15.3465 16.2462 15.015L16.25 5.01251V5.01126Z" fill="black"/>
<path d="M5 16.24C5 13.4775 6.11875 10.9775 7.92875 9.16876L9.69625 10.9363C8.64731 11.9851 7.93295 13.3215 7.64352 14.7764C7.35409 16.2312 7.50259 17.7393 8.07023 19.1097C8.63787 20.4802 9.59917 21.6516 10.8325 22.4757C12.0659 23.2999 13.516 23.7397 14.9994 23.7397C16.4828 23.7397 17.9328 23.2999 19.1662 22.4757C20.3996 21.6516 21.3609 20.4802 21.9285 19.1097C22.4962 17.7393 22.6447 16.2312 22.3552 14.7764C22.0658 13.3215 21.3514 11.9851 20.3025 10.9363L22.0712 9.16876C23.234 10.3316 24.0921 11.7633 24.5695 13.337C25.0468 14.9107 25.1287 16.5778 24.8078 18.1906C24.487 19.8035 23.7733 21.3124 22.7301 22.5836C21.6868 23.8548 20.3462 24.8491 18.8269 25.4784C17.3076 26.1077 15.6565 26.3527 14.02 26.1915C12.3834 26.0303 10.8118 25.4681 9.44447 24.5545C8.07711 23.6409 6.95617 22.4041 6.18092 20.9539C5.40568 19.5036 5.00006 17.8845 5 16.24Z" fill="black"/>
</svg>
