<svg width="30" height="30" viewBox="0 0 30 30" fill="none" xmlns="http://www.w3.org/2000/svg">
<g clip-path="url(#clip0_170_203)">
<path d="M11.1083 26.6667C12.1438 26.6667 12.9833 25.8272 12.9833 24.7917C12.9833 23.7561 12.1438 22.9167 11.1083 22.9167C10.0727 22.9167 9.23328 23.7561 9.23328 24.7917C9.23328 25.8272 10.0727 26.6667 11.1083 26.6667Z" fill="black"/>
<path d="M22.5 26.6667C23.5355 26.6667 24.375 25.8272 24.375 24.7917C24.375 23.7561 23.5355 22.9167 22.5 22.9167C21.4645 22.9167 20.625 23.7561 20.625 24.7917C20.625 25.8272 21.4645 26.6667 22.5 26.6667Z" fill="black"/>
<path d="M18.8083 5.83332C18.7703 5.55715 18.7508 5.27876 18.75 4.99999C18.7508 4.72122 18.7703 4.44283 18.8083 4.16666H9.57495L10.1166 5.83332H18.8083Z" fill="black"/>
<path d="M25 11.25H24.65L23.6084 15.8333H11.1084L7.30003 3.77501C7.25884 3.64706 7.1873 3.53097 7.09153 3.43665C6.99576 3.34233 6.8786 3.27258 6.75003 3.23334L3.33336 2.18334C3.22831 2.15106 3.11792 2.13978 3.0085 2.15016C2.89909 2.16054 2.79279 2.19237 2.69568 2.24383C2.49954 2.34775 2.35273 2.52534 2.28753 2.73751C2.22233 2.94968 2.24409 3.17907 2.34802 3.3752C2.45194 3.57133 2.62952 3.71814 2.8417 3.78334L5.83336 4.70001L9.65836 16.7833L8.2917 17.9L8.18336 18.0083C7.84531 18.3979 7.6537 18.8932 7.64153 19.4088C7.62936 19.9245 7.7974 20.4283 8.1167 20.8333C8.34383 21.1096 8.63245 21.3288 8.95948 21.4735C9.28651 21.6182 9.64286 21.6843 10 21.6667H23.9084C24.1294 21.6667 24.3413 21.5789 24.4976 21.4226C24.6539 21.2663 24.7417 21.0544 24.7417 20.8333C24.7417 20.6123 24.6539 20.4004 24.4976 20.2441C24.3413 20.0878 24.1294 20 23.9084 20H9.8667C9.77074 19.9967 9.67724 19.9688 9.59525 19.9188C9.51325 19.8688 9.44552 19.7986 9.39861 19.7148C9.3517 19.631 9.32718 19.5366 9.32743 19.4406C9.32768 19.3445 9.35268 19.2502 9.40003 19.1667L11.4084 17.5H24.275C24.4677 17.5047 24.656 17.4425 24.8079 17.324C24.9599 17.2055 25.066 17.038 25.1084 16.85L26.4167 11.0917C25.952 11.1982 25.4767 11.2514 25 11.25Z" fill="black"/>
<path d="M25 9.16668C27.3012 9.16668 29.1667 7.3012 29.1667 5.00001C29.1667 2.69882 27.3012 0.833344 25 0.833344C22.6989 0.833344 20.8334 2.69882 20.8334 5.00001C20.8334 7.3012 22.6989 9.16668 25 9.16668Z" fill="black"/>
</g>
<defs>
<clipPath id="clip0_170_203">
<rect width="30" height="30" fill="white"/>
</clipPath>
</defs>
</svg>
