<svg width="30" height="30" viewBox="0 0 30 30" fill="none" xmlns="http://www.w3.org/2000/svg">
<path d="M16.25 5.01123C16.25 4.67971 16.1183 4.36177 15.8838 4.12735C15.6494 3.89293 15.3315 3.76123 15 3.76123C14.6684 3.76123 14.3505 3.89293 14.1161 4.12735C13.8817 4.36177 13.75 4.67971 13.75 5.01123L13.7462 15.015C13.7462 15.3465 13.8779 15.6644 14.1123 15.8989C14.3468 16.1333 14.6647 16.265 14.9962 16.265C15.3277 16.265 15.6457 16.1333 15.8801 15.8989C16.1145 15.6644 16.2462 15.3465 16.2462 15.015L16.25 5.01248V5.01123Z" fill="white"/>
<path d="M5 16.2399C5 13.4775 6.11875 10.9775 7.92875 9.1687L9.69625 10.9362C8.64731 11.9851 7.93295 13.3214 7.64352 14.7763C7.35409 16.2312 7.50259 17.7392 8.07023 19.1097C8.63787 20.4802 9.59917 21.6515 10.8325 22.4757C12.0659 23.2998 13.516 23.7397 14.9994 23.7397C16.4828 23.7397 17.9328 23.2998 19.1662 22.4757C20.3996 21.6515 21.3609 20.4802 21.9285 19.1097C22.4962 17.7392 22.6447 16.2312 22.3552 14.7763C22.0658 13.3214 21.3514 11.9851 20.3025 10.9362L22.0712 9.1687C23.234 10.3316 24.0921 11.7632 24.5695 13.3369C25.0468 14.9106 25.1287 16.5777 24.8078 18.1906C24.487 19.8035 23.7733 21.3123 22.7301 22.5835C21.6868 23.8547 20.3462 24.849 18.8269 25.4784C17.3076 26.1077 15.6565 26.3526 14.02 26.1914C12.3834 26.0303 10.8118 25.468 9.44447 24.5544C8.07711 23.6408 6.95617 22.4041 6.18092 20.9538C5.40568 19.5035 5.00006 17.8844 5 16.2399Z" fill="white"/>
</svg>
